<mxfile host="app.diagrams.net" agent="Mozilla/5.0 (Windows NT 10.0; Win64; x64) AppleWebKit/537.36 (KHTML, like Gecko) Chrome/137.0.0.0 Safari/537.36" version="27.1.4">
  <diagram name="Page-1" id="WYxAkq7we-49aJHio08b">
    <mxGraphModel dx="1426" dy="743" grid="1" gridSize="10" guides="1" tooltips="1" connect="1" arrows="1" fold="1" page="1" pageScale="1" pageWidth="850" pageHeight="1100" math="0" shadow="0">
      <root>
        <mxCell id="0" />
        <mxCell id="1" parent="0" />
        <mxCell id="W-EM58wJrJDfyjyYKX9C-1" value="Prompt" style="rounded=1;whiteSpace=wrap;html=1;" vertex="1" parent="1">
          <mxGeometry x="20" y="170" width="110" height="50" as="geometry" />
        </mxCell>
        <mxCell id="W-EM58wJrJDfyjyYKX9C-2" value="Response" style="rounded=1;whiteSpace=wrap;html=1;" vertex="1" parent="1">
          <mxGeometry x="20" y="340" width="110" height="50" as="geometry" />
        </mxCell>
        <mxCell id="W-EM58wJrJDfyjyYKX9C-3" value="&lt;font style=&quot;font-size: 24px;&quot;&gt;LLM&lt;/font&gt;" style="whiteSpace=wrap;html=1;aspect=fixed;" vertex="1" parent="1">
          <mxGeometry x="660" y="200" width="150" height="150" as="geometry" />
        </mxCell>
        <mxCell id="W-EM58wJrJDfyjyYKX9C-4" value="Vector&lt;div&gt;DB&lt;/div&gt;" style="shape=cylinder3;whiteSpace=wrap;html=1;boundedLbl=1;backgroundOutline=1;size=15;" vertex="1" parent="1">
          <mxGeometry x="240" y="30" width="80" height="100" as="geometry" />
        </mxCell>
        <mxCell id="W-EM58wJrJDfyjyYKX9C-5" value="" style="rounded=1;whiteSpace=wrap;html=1;dashed=1;dashPattern=1 2;strokeColor=#FF9933;strokeWidth=3;" vertex="1" parent="1">
          <mxGeometry x="200" y="170" width="390" height="230" as="geometry" />
        </mxCell>
        <mxCell id="W-EM58wJrJDfyjyYKX9C-8" value="CS App" style="text;html=1;align=center;verticalAlign=middle;whiteSpace=wrap;rounded=0;" vertex="1" parent="1">
          <mxGeometry x="520" y="170" width="60" height="30" as="geometry" />
        </mxCell>
      </root>
    </mxGraphModel>
  </diagram>
</mxfile>
